<svg width="16" height="16" viewBox="0 0 16 16" fill="none" xmlns="http://www.w3.org/2000/svg">
<g id="Group">
<g id="003-pizza-slice">
<path id="Path" d="M6.81935 4.68266C6.81935 4.56684 6.78802 4.45868 6.74263 4.35596C6.21101 4.42021 5.6828 4.51931 5.18613 4.64995C5.18571 4.66114 5.18262 4.67148 5.18262 4.68266C5.18262 5.13383 5.54982 5.50103 6.00098 5.50103C6.45204 5.50103 6.81935 5.13383 6.81935 4.68266Z" fill="black"/>
<path id="Shape" fill-rule="evenodd" clip-rule="evenodd" d="M13.3664 5.42624C13.0471 5.42624 12.7399 5.35389 12.4533 5.21078C12.2275 5.09804 11.9738 4.99575 11.7081 4.90006C11.6048 5.47313 11.1049 5.91012 10.5026 5.91012C9.82561 5.91012 9.27503 5.35943 9.27503 4.68257V4.34564C8.86179 4.29854 8.44792 4.27222 8.04705 4.27222C7.89446 4.27222 7.73899 4.27861 7.58342 4.28564C7.61602 4.41532 7.63829 4.54778 7.63829 4.68257C7.63829 5.58533 6.90422 6.3193 6.00156 6.3193C5.17318 6.3193 4.4943 5.69914 4.38678 4.89984C4.12156 4.99543 3.86838 5.09751 3.64311 5.21003C3.36819 5.34749 3.05768 5.4207 2.74525 5.4207C2.73505 5.4207 2.72522 5.41867 2.71538 5.41664C2.7062 5.41475 2.69701 5.41286 2.6875 5.4126L3.54646 7.00703V11.2295C3.54646 11.9064 4.09705 12.457 4.77401 12.457C5.35539 12.457 5.84322 12.0511 5.96991 11.5076L7.68699 14.7513C7.75849 14.884 7.8968 14.9667 8.04748 14.9667C8.19804 14.9667 8.33636 14.884 8.40786 14.7513L9.63711 12.4137C9.52022 12.4402 9.39981 12.457 9.27503 12.457C8.37099 12.457 7.63829 11.7242 7.63829 10.8203C7.63829 9.91638 8.37099 9.18358 9.27503 9.18358C9.97682 9.18358 10.5706 9.62751 10.8032 10.2481L13.4022 5.42123C13.3963 5.42134 13.3905 5.42253 13.3848 5.42373C13.3788 5.42498 13.3728 5.42624 13.3664 5.42624ZM7.22911 8.7744C6.55215 8.7744 6.00156 8.22371 6.00156 7.54685C6.00156 7.32074 6.18452 7.13767 6.41075 7.13767C6.63686 7.13767 6.81993 7.32074 6.81993 7.54685C6.81993 7.77265 7.00331 7.95604 7.22911 7.95604C7.4548 7.95604 7.63829 7.77265 7.63829 7.54685C7.63829 7.32074 7.82125 7.13767 8.04748 7.13767C8.27359 7.13767 8.45666 7.32074 8.45666 7.54685C8.45666 8.22371 7.90597 8.7744 7.22911 8.7744ZM9.27503 7.13767C9.27503 7.36368 9.4582 7.54685 9.68421 7.54685C9.91011 7.54685 10.0934 7.36368 10.0934 7.13767C10.0934 6.91166 9.91011 6.72849 9.68421 6.72849C9.4582 6.72849 9.27503 6.91166 9.27503 7.13767Z" fill="black"/>
<path id="Path_2" d="M9.27442 10.002C8.82325 10.002 8.45605 10.3692 8.45605 10.8203C8.45605 11.2715 8.82325 11.6387 9.27442 11.6387C9.72548 11.6387 10.0928 11.2715 10.0928 10.8203C10.0928 10.3692 9.72548 10.002 9.27442 10.002Z" fill="black"/>
<path id="Path_3" d="M14.4645 3.92896C14.7669 3.32403 14.5207 2.58516 13.9154 2.28189C12.3342 1.49113 10.0861 1 8.04819 1C6.0091 1 3.76019 1.49113 2.17897 2.28189C1.57319 2.58516 1.32661 3.32361 1.62956 3.92939C1.92558 4.51876 2.68363 4.77493 3.27663 4.47806C4.52133 3.85586 6.39345 3.45393 8.04659 3.45393C8.71194 3.45393 9.41171 3.52159 10.0929 3.63998V4.68265C10.0929 4.90866 10.2761 5.09183 10.5021 5.09183C10.728 5.09183 10.9113 4.90866 10.9113 4.68265V3.81164C11.6176 3.98384 12.2779 4.20868 12.8173 4.47848C13.4197 4.77823 14.1566 4.54338 14.4645 3.92896Z" fill="black"/>
</g>
</g>
</svg>
